<svg height="448pt" viewBox="0 -24 448 448" width="448pt" xmlns="http://www.w3.org/2000/svg"><path d="M16 283.414V392a8 8 0 0 0 8 8h400a8 8 0 0 0 8-8V283.414l-176 24.274V328c0 13.254-10.746 24-24 24h-16c-13.254 0-24-10.746-24-24v-20.313zm0 0"/><path d="M216 272h16a8 8 0 0 1 8 8v48a8 8 0 0 1-8 8h-16a8 8 0 0 1-8-8v-48a8 8 0 0 1 8-8zm0 0"/><path d="M448 258.078V80a8 8 0 0 0-8-8H8a8 8 0 0 0-8 8v178.078a8.001 8.001 0 0 0 6.887 7.93L192 291.535V280c0-13.254 10.746-24 24-24h16c13.254 0 24 10.746 24 24v11.535l182.902-25.222 2.22-.305a8 8 0 0 0 6.878-7.93zm0 0M128 56h16V24a8 8 0 0 1 8-8h144a8 8 0 0 1 8 8v32h16V24c0-13.254-10.746-24-24-24H152c-13.254 0-24 10.746-24 24zm0 0"/></svg>