<svg width="306" height="256" viewBox="0 0 306 256" xmlns="http://www.w3.org/2000/svg"><path d="M186.629 3.855C181.777-1 173.906-1 169.047 3.855c-4.856 4.852-4.856 12.727 0 17.582l94.164 94.165H13.02c-6.887 0-12.473 5.585-12.473 12.472 0 6.89 5.586 12.473 12.473 12.473h250.066l-94.164 94.164a12.42 12.42 0 0 0 0 17.586 12.25 12.25 0 0 0 8.855 3.617 12.778 12.778 0 0 0 8.852-3.617l115.367-115.363a12.36 12.36 0 0 0 3.621-8.86 12.856 12.856 0 0 0-3.62-8.851L186.628 3.855z" fill-rule="evenodd"/></svg>