<svg xmlns="http://www.w3.org/2000/svg" viewBox="0 0 49.94 49.94" width="49.94" height="49.94"><path d="M48.856 22.73a3.56 3.56 0 0 0 .906-3.671 3.56 3.56 0 0 0-2.892-2.438l-12.092-1.757a1.58 1.58 0 0 1-1.19-.865L28.182 3.043a3.56 3.56 0 0 0-3.212-1.996 3.56 3.56 0 0 0-3.211 1.996L16.352 14c-.23.467-.676.79-1.191.865L3.069 16.622A3.56 3.56 0 0 0 .177 19.06a3.56 3.56 0 0 0 .906 3.671l8.749 8.528c.373.364.544.888.456 1.4L8.224 44.701a3.506 3.506 0 0 0 .781 2.904c1.066 1.267 2.927 1.653 4.415.871l10.814-5.686a1.619 1.619 0 0 1 1.472 0l10.815 5.686a3.544 3.544 0 0 0 1.666.417c1.057 0 2.059-.47 2.748-1.288a3.505 3.505 0 0 0 .781-2.904l-2.065-12.042a1.582 1.582 0 0 1 .456-1.4l8.749-8.529z"/></svg>